<?xml version="1.0" encoding="UTF-8"?>
<svg version="1.1" xmlns="http://www.w3.org/2000/svg" width="500" height="500">
<path d="M0 0 C1.68420638 -0.00243621 3.36841129 -0.00616349 5.0526123 -0.01106262 C9.57107596 -0.02035979 14.08931875 -0.01114282 18.60776496 0.00226951 C23.36707517 0.01370352 28.12637638 0.00946751 32.88569641 0.00752258 C40.86996 0.0066436 48.85413804 0.01763876 56.83837891 0.03613281 C66.03558104 0.05731608 75.23265824 0.06080324 84.42987984 0.05457085 C93.32579089 0.04885409 102.22165847 0.05454861 111.11756325 0.0657444 C114.88234076 0.07035764 118.64709141 0.0712786 122.41187096 0.06915855 C126.85176758 0.06725911 131.29153907 0.0755052 135.73140717 0.09121895 C137.34938095 0.0954195 138.96736753 0.09634133 140.58534431 0.09352875 C169.03423545 0.05161754 192.01022428 7.07912471 212.5637207 27.16137695 C214.50206564 29.48083411 215.45613428 31.52159025 216.41137695 34.37231445 C217.07137695 34.37231445 217.73137695 34.37231445 218.41137695 34.37231445 C226.73456662 49.06238852 232.51170896 62.58255662 232.55181885 79.83276367 C232.55627553 80.91004305 232.55627553 80.91004305 232.56082225 82.00908566 C232.56944391 84.39840316 232.57101194 86.78767017 232.57250977 89.17700195 C232.5771427 90.89751796 232.582168 92.61803294 232.58755493 94.33854675 C232.60063812 99.00221343 232.6071163 103.66586573 232.61156559 108.32954788 C232.61450388 111.24923137 232.61861017 114.168911 232.62306976 117.08859253 C232.63673608 126.24079589 232.64640607 135.39299035 232.65027165 144.54520321 C232.6547456 155.07747397 232.67226632 165.60961451 232.70127225 176.1418457 C232.72296194 184.30351522 232.73297987 192.46514831 232.73431277 200.62684631 C232.73535591 205.49149595 232.74115789 210.35602304 232.75913239 215.22064209 C232.7757388 219.80405834 232.77770829 224.38726159 232.76899338 228.9706974 C232.76822959 230.64146817 232.77247747 232.312251 232.78245163 233.98299217 C232.86752939 249.13807638 230.99516568 262.48910779 224.41137695 276.37231445 C224.05817383 277.13415039 223.7049707 277.89598633 223.34106445 278.6809082 C221.35270508 282.82201887 219.17031483 286.69373062 216.41137695 290.37231445 C215.75137695 290.37231445 215.09137695 290.37231445 214.41137695 290.37231445 C214.12262695 290.97043945 213.83387695 291.56856445 213.53637695 292.18481445 C212.41137695 294.37231445 212.41137695 294.37231445 210.41137695 297.37231445 C209.75137695 297.37231445 209.09137695 297.37231445 208.41137695 297.37231445 C208.41137695 298.03231445 208.41137695 298.69231445 208.41137695 299.37231445 C203.94078872 303.37231445 203.94078872 303.37231445 201.41137695 303.37231445 C201.41137695 304.03231445 201.41137695 304.69231445 201.41137695 305.37231445 C198.41137695 307.37231445 198.41137695 307.37231445 195.41137695 307.37231445 C195.41137695 308.03231445 195.41137695 308.69231445 195.41137695 309.37231445 C193.08521731 310.47352832 190.75195276 311.55246171 188.41137695 312.62231445 C187.78231445 312.92266602 187.15325195 313.22301758 186.50512695 313.5324707 C172.9441996 319.66096672 159.60960998 320.96578837 144.97412109 320.88989258 C143.18655329 320.89532849 141.39898997 320.90245929 139.61143494 320.91113281 C134.80549497 320.92919602 129.99990275 320.92236941 125.19395757 320.90961647 C120.1330755 320.89939818 115.07222068 320.90890655 110.01133728 320.91516113 C101.51580533 320.92241273 93.02041303 320.91291617 84.52490234 320.89379883 C74.74432773 320.87204197 64.9640869 320.87908298 55.18352038 320.90110445 C46.74305807 320.9193381 38.30269542 320.92177786 29.86221975 320.91134977 C24.84002215 320.90515749 19.8179807 320.90416013 14.79579353 320.91749573 C10.07016553 320.92917012 5.34496187 320.92082025 0.61937904 320.8979187 C-1.10053559 320.8926925 -2.82048681 320.89403884 -4.5403862 320.90296936 C-18.99387016 320.97101827 -33.48372635 319.49913707 -46.33862305 312.30981445 C-46.9831543 311.97143555 -47.62768555 311.63305664 -48.29174805 311.28442383 C-50.07224281 310.3412724 -51.83143247 309.35820364 -53.58862305 308.37231445 C-54.5631543 307.83735352 -55.53768555 307.30239258 -56.54174805 306.7512207 C-57.2172168 306.29618164 -57.89268555 305.84114258 -58.58862305 305.37231445 C-58.58862305 304.71231445 -58.58862305 304.05231445 -58.58862305 303.37231445 C-59.32725586 303.12094727 -60.06588867 302.86958008 -60.8269043 302.6105957 C-63.7946586 301.27993359 -65.49982854 299.8625263 -67.77612305 297.55981445 C-68.78739258 296.56014648 -68.78739258 296.56014648 -69.8190918 295.5402832 C-71.69599677 293.24076386 -72.6370777 291.16839386 -73.58862305 288.37231445 C-74.24862305 288.37231445 -74.90862305 288.37231445 -75.58862305 288.37231445 C-80.177766 283.38535105 -82.78173495 276.99148726 -85.33862305 270.80981445 C-85.63212646 270.10219971 -85.92562988 269.39458496 -86.22802734 268.66552734 C-91.53221993 255.42267032 -91.7391495 242.34449883 -91.73388672 228.22094727 C-91.73688398 226.60673953 -91.7402878 224.99253251 -91.74406433 223.37832642 C-91.75285097 219.01860961 -91.75524019 214.65891247 -91.75588012 210.29918766 C-91.75659367 207.56827913 -91.75873374 204.83737551 -91.76137733 202.1064682 C-91.77061318 192.55901271 -91.77471444 183.01157113 -91.77392578 173.46411133 C-91.7733255 164.5970946 -91.78387209 155.7301388 -91.79966944 146.86313748 C-91.81279099 139.2228623 -91.81810775 131.58260693 -91.81747037 123.94232059 C-91.81721674 119.39132715 -91.81999317 114.84038793 -91.83064842 110.28940582 C-91.84040743 106.00474607 -91.84035575 101.7201915 -91.83313179 97.4355278 C-91.83209557 95.87399261 -91.83439073 94.31245059 -91.84049225 92.75092697 C-91.92024197 70.90496404 -87.85542214 50.77251309 -75.58862305 32.37231445 C-74.92862305 32.37231445 -74.26862305 32.37231445 -73.58862305 32.37231445 C-73.31663086 31.78450195 -73.04463867 31.19668945 -72.7644043 30.59106445 C-69.9512739 25.28256589 -65.49624554 20.78038563 -60.58862305 17.37231445 C-59.92862305 17.37231445 -59.26862305 17.37231445 -58.58862305 17.37231445 C-58.58862305 16.71231445 -58.58862305 16.05231445 -58.58862305 15.37231445 C-43.01923004 1.36408009 -19.83683128 -0.10250187 0 0 Z " fill="#1D2D3C" transform="translate(179.588623046875,88.627685546875)"/>
<path d="M0 0 C2.10546875 1.21484375 2.10546875 1.21484375 4.1875 2.9375 C4.96609375 3.57816406 5.7446875 4.21882812 6.546875 4.87890625 C10.75894536 8.52087155 14.89415917 12.23892443 19 16 C20.78954946 17.62733131 22.58117057 19.25238777 24.375 20.875 C25.16648438 21.59429687 25.95796875 22.31359375 26.7734375 23.0546875 C27.50820312 23.69664062 28.24296875 24.33859375 29 25 C29.50950195 25.52037842 30.01900391 26.04075684 30.54394531 26.5769043 C34.36609797 28.79154921 38.17329271 28.60747704 42.5234375 28.71484375 C43.46120026 28.73905899 44.39896301 28.76327423 45.36514282 28.78822327 C47.35377476 28.82969648 49.34261877 28.86188539 51.33154297 28.88549805 C53.3432579 28.91987116 55.35471255 28.98094144 57.36474609 29.07006836 C68.01060573 29.5416759 76.73443272 29.85329886 84.9453125 22.34765625 C86.56859795 20.75313807 88.13263099 19.12923163 89.66387939 17.44631958 C91.38618939 15.58195894 93.26842465 13.96475812 95.21875 12.34375 C96.8748427 10.90897845 98.53018946 9.47360177 100.1796875 8.03125 C109.13046125 0.2991262 109.13046125 0.2991262 114.125 -0.5 C117.66322751 0.11534392 118.79591757 1.22448879 121 4 C122.16084657 6.32169314 122.12442906 7.65943102 122.12597656 10.2434082 C122.12978333 11.12225174 122.13359009 12.00109528 122.13751221 12.90657043 C122.13853943 13.86166 122.13956665 14.81674957 122.140625 15.80078125 C122.1589756 17.83139122 122.17854794 19.86199045 122.19921875 21.89257812 C122.22800112 25.08717677 122.24999515 28.28109404 122.25048828 31.47583008 C122.26382757 43.68223591 122.36528037 53.93176124 128 65 C131.62675679 73.56274338 132.85886702 83.37011559 129.875 92.375 C125.50814969 101.76671916 118.38848247 107.23450572 110 113 C109.35659668 113.44230957 108.71319336 113.88461914 108.05029297 114.34033203 C95.38913398 122.9919712 95.38913398 122.9919712 91 125 C93.72760843 128.64104008 96.52115167 131.36169938 100.125 134.125 C116.0664687 146.94194083 129.28495062 164.75914904 131.78393555 185.50952148 C132.23477608 190.70615911 132.22654487 195.91209773 132.25 201.125 C132.2809375 202.85556641 132.2809375 202.85556641 132.3125 204.62109375 C132.34704669 212.10908944 131.75263694 217.62266079 126.3125 223.1875 C125.87550781 223.65542969 125.43851563 224.12335938 124.98828125 224.60546875 C118.98278709 228.81757369 112.80432171 229.44273792 105.71337891 229.40405273 C104.82119156 229.41091599 103.92900421 229.41777924 103.00978088 229.42485046 C100.08187615 229.44304217 97.15451123 229.43929149 94.2265625 229.43359375 C92.17686796 229.43815955 90.12717494 229.4434663 88.07748413 229.44947815 C83.78889738 229.45839456 79.50049698 229.45600323 75.21191406 229.44604492 C69.73566568 229.43456347 64.26006292 229.45476194 58.78389931 229.48396206 C54.55262209 229.50237303 50.32149814 229.50202173 46.09019089 229.49632454 C44.07211782 229.49617189 42.05403399 229.5021692 40.0359993 229.51461601 C19.90448515 229.62129143 19.90448515 229.62129143 12 225 C10.948125 224.4225 9.89625 223.845 8.8125 223.25 C1.20279175 217.1622334 -4.42838807 209.4583015 -7 200 C-8.63371515 185.21145697 -6.53703344 173.27762652 2.66796875 161.328125 C4 160 4 160 6 160 C6 159.34 6 158.68 6 158 C6.66 158 7.32 158 8 158 C8 157.34 8 156.68 8 156 C15.66216216 150.97876448 15.66216216 150.97876448 20.9375 151.0625 C24 152 24 152 26 154 C26.68181818 161.04545455 26.68181818 161.04545455 24.4375 164.1875 C22 166 22 166 18.625 168.125 C13.88891171 171.54153021 10.92953122 175.47141409 9 181 C7.81819141 188.92461943 7.76188557 197.00865795 12 204 C15.74430216 208.36835252 20.25774888 212.33330919 26.06707191 213.36825371 C28.39509103 213.5103631 30.6924568 213.52943409 33.0246582 213.50170898 C34.33810463 213.50981346 34.33810463 213.50981346 35.67808533 213.51808167 C38.55266815 213.53052111 41.42624052 213.51411676 44.30078125 213.49609375 C46.30380811 213.49624878 48.30683527 213.49773841 50.30986023 213.50050354 C54.49682966 213.50188514 58.68345551 213.48936376 62.87036133 213.46655273 C68.24534688 213.43807694 73.61976578 213.44093346 78.99479389 213.45364285 C83.12539036 213.46058322 87.25585493 213.45283111 91.38643456 213.44038582 C93.36923912 213.43586179 95.35205779 213.43554279 97.33486366 213.43945122 C100.09764526 213.44234969 102.859633 213.42592567 105.62231445 213.40405273 C106.44569305 213.40855438 107.26907166 213.41305603 108.11740112 213.41769409 C110.61833684 213.42013054 110.61833684 213.42013054 114 213 C116.07771326 209.88343011 116.26159445 209.12202782 116.30078125 205.5703125 C116.31044922 204.69906738 116.32011719 203.82782227 116.33007812 202.93017578 C116.20507884 182.9823736 111.80747839 167.45876639 97.8828125 152.7578125 C96.11157108 150.93766558 96.11157108 150.93766558 94 150 C94 149.34 94 148.68 94 148 C93.47019531 147.78214844 92.94039063 147.56429687 92.39453125 147.33984375 C88.50535684 145.16368254 85.33592519 142.05058015 82.04101562 139.07617188 C81.49509766 138.59857422 80.94917969 138.12097656 80.38671875 137.62890625 C79.90420654 137.19650635 79.42169434 136.76410645 78.92456055 136.31860352 C73.01652524 132.2707412 67.92908056 131.56754628 60.953125 131.59375 C59.67535187 131.57749573 59.67535187 131.57749573 58.37176514 131.56091309 C55.66443256 131.52685703 52.95751781 131.51111223 50.25 131.5 C25.33482598 131.39693363 11.4057183 124.79329059 -8.02197266 109.51074219 C-9.97859697 108.01634682 -11.98156821 106.61875315 -14.01171875 105.2265625 C-14.99785156 104.49179688 -15.98398438 103.75703125 -17 103 C-17 102.34 -17 101.68 -17 101 C-17.5775 100.773125 -18.155 100.54625 -18.75 100.3125 C-22.56083774 98.08951132 -24.61929664 95.14211008 -26 91 C-27.10068948 82.56138068 -22.89977876 74.46921768 -18.98339844 67.17797852 C-12.47806439 54.6774515 -11.96687854 43.64560138 -12.25 29.75 C-12.28912887 26.72258517 -12.31633103 23.69618799 -12.32073975 20.66851807 C-12.32553187 18.8051756 -12.35088202 16.94172971 -12.40045166 15.07904053 C-12.44058268 9.5397678 -11.76183307 6.36196327 -8 2 C-4.73693764 -0.17537491 -3.78128971 -0.45329573 0 0 Z " fill="#74DDEA" transform="translate(194,134)"/>
<path d="M0 0 C3.90226122 1.80120272 6.2691091 4.13283981 9.25 7.25 C17.83076435 16.41597973 17.83076435 16.41597973 29.33210754 20.14044189 C30.19035629 20.1472699 31.04860504 20.1540979 31.93286133 20.16113281 C33.40007378 20.17554413 33.40007378 20.17554413 34.89692688 20.19024658 C36.47355354 20.1966214 36.47355354 20.1966214 38.08203125 20.203125 C39.71334236 20.21167511 39.71334236 20.21167511 41.37760925 20.22039795 C43.6782433 20.22984008 45.97889082 20.23637881 48.27954102 20.24023438 C51.78881577 20.24993453 55.29750341 20.28096384 58.80664062 20.3125 C61.04426736 20.31903096 63.28189828 20.32428107 65.51953125 20.328125 C66.564543 20.3404718 67.60955475 20.3528186 68.68623352 20.36553955 C77.27764004 20.33943211 82.62991937 18.75374454 89 12.6875 C89.845625 11.89859375 90.69125 11.1096875 91.5625 10.296875 C92.366875 9.53890625 93.17125 8.7809375 94 8 C100.63414634 2 100.63414634 2 103 2 C103 1.34 103 0.68 103 0 C103.66 0 104.32 0 105 0 C104.99045288 1.50228149 104.99045288 1.50228149 104.98071289 3.03491211 C104.40180877 27.14472723 104.40180877 27.14472723 111.453125 49.78125 C113.69709159 54.45051381 114.60471384 59.00504564 113 64 C109.39612608 70.07609661 104.80453434 74.10379663 99 78 C98.26031982 78.50837402 97.52063965 79.01674805 96.75854492 79.54052734 C75.00685055 94.29652621 75.00685055 94.29652621 61.55859375 94.3359375 C60.75446548 94.3425943 59.95033722 94.3492511 59.12184143 94.35610962 C57.42329174 94.3662004 55.72470268 94.37092775 54.02612305 94.37060547 C51.46919493 94.37494619 48.91404149 94.41121128 46.35742188 94.44921875 C32.22603777 94.55168554 21.04282077 92.34120058 9.4375 83.8125 C8.63393066 83.24241211 7.83036133 82.67232422 7.00244141 82.08496094 C4.65325671 80.4095953 2.32384293 78.71028704 0 77 C-0.6614502 76.51644043 -1.32290039 76.03288086 -2.00439453 75.53466797 C-11.22070312 68.77929688 -11.22070312 68.77929688 -13 67 C-13.37819308 62.39583872 -12.6551995 59.69836184 -10.41015625 55.703125 C-0.57275172 36.92088188 0.76818966 20.97119739 0 0 Z " fill="#1B2C3B" transform="translate(197,157)"/>
<path d="M0 0 C0.495 0.99 0.495 0.99 1 2 C1.99 2.33 2.98 2.66 4 3 C1.53838983 4.23080509 -0.06496993 4.12043977 -2.81689453 4.11352539 C-3.81778107 4.11344986 -4.8186676 4.11337433 -5.84988403 4.11329651 C-6.93325043 4.10813522 -8.01661682 4.10297394 -9.1328125 4.09765625 C-10.23978485 4.0962413 -11.3467572 4.09482635 -12.48727417 4.09336853 C-16.03320993 4.08775772 -19.57908323 4.07520337 -23.125 4.0625 C-25.52473867 4.05748639 -27.92447833 4.05292325 -30.32421875 4.04882812 C-36.21616725 4.03778478 -42.10807916 4.0210361 -48 4 C-48 3.34 -48 2.68 -48 2 C-47.41340103 1.98969254 -46.82680206 1.97938507 -46.22242737 1.96876526 C-40.1396213 1.86092806 -34.05697026 1.74631244 -27.97436523 1.62768555 C-25.70161164 1.58426335 -23.42882387 1.54259384 -21.15600586 1.50268555 C-17.89686768 1.44515881 -14.63790269 1.38141448 -11.37890625 1.31640625 C-10.35599991 1.29969376 -9.33309357 1.28298126 -8.27919006 1.26576233 C-7.33829025 1.24581711 -6.39739044 1.22587189 -5.42797852 1.20532227 C-4.59524918 1.18977798 -3.76251984 1.1742337 -2.90455627 1.15821838 C-0.99033415 1.20571386 -0.99033415 1.20571386 0 0 Z " fill="#67BBC6" transform="translate(272,174)"/>
<path d="M0 0 C0 3 0 3 -0.48022461 5.0690918 C-1.23664823 9.33441149 -1.23739823 13.56999057 -1.31640625 17.89453125 C-1.33718735 18.84188644 -1.35796844 19.78924164 -1.37937927 20.76530457 C-1.44457778 23.7809651 -1.50362132 26.7967101 -1.5625 29.8125 C-1.60571348 31.86133674 -1.64932866 33.91016504 -1.69335938 35.95898438 C-1.80022866 40.97257047 -1.90157931 45.98624123 -2 51 C-2.99 51 -3.98 51 -5 51 C-4.95827892 44.70069323 -4.88590231 38.40226628 -4.79248047 32.10351562 C-4.76430256 29.96199491 -4.74307225 27.82037082 -4.72900391 25.67871094 C-4.70753075 22.59516593 -4.66085683 19.51285982 -4.609375 16.4296875 C-4.60814636 15.47633514 -4.60691772 14.52298279 -4.60565186 13.54074097 C-4.47858077 7.73784975 -3.75026396 4.48855634 0 0 Z " fill="#68B7C3" transform="translate(186,136)"/>
<path d="M0 0 C0.33 0 0.66 0 1 0 C1 1.65 1 3.3 1 5 C1.66 5.33 2.32 5.66 3 6 C3.5 8.6875 3.5 8.6875 3 12 C1.01766025 13.44762968 -1.06089228 14.53291185 -3.21875 15.69921875 C-3.8065625 16.12847656 -4.394375 16.55773437 -5 17 C-5.67012422 20.2140814 -5.67012422 20.2140814 -5 23 C-6.65 23.33 -8.3 23.66 -10 24 C-8.36368504 18.6776703 -6.16119959 13.69018424 -3.875 8.625 C-3.50246094 7.79355469 -3.12992188 6.96210938 -2.74609375 6.10546875 C-1.83326454 4.06915745 -0.91784402 2.03405461 0 0 Z " fill="#1A2C3B" transform="translate(196,191)"/>
<path d="M0 0 C13.2 0 26.4 0 40 0 C40.495 0.99 40.495 0.99 41 2 C36.29898838 2.77341393 31.90703976 3.08327211 27.1484375 2.9140625 C25.88515625 2.87023437 24.621875 2.82640625 23.3203125 2.78125 C22.01835937 2.7296875 20.71640625 2.678125 19.375 2.625 C17.41046875 2.55925781 17.41046875 2.55925781 15.40625 2.4921875 C4.81592667 2.10235965 4.81592667 2.10235965 0 1 C0 0.67 0 0.34 0 0 Z " fill="#082A39" transform="translate(224,265)"/>
<path d="M0 0 C0.33 0 0.66 0 1 0 C1.01981934 1.23041016 1.03963867 2.46082031 1.06005859 3.72851562 C1.13649135 8.32083595 1.22514913 12.91285491 1.31738281 17.50488281 C1.35551757 19.48724388 1.39039669 21.4696705 1.421875 23.45214844 C1.46786395 26.31208624 1.52580072 29.17157882 1.5859375 32.03125 C1.59748871 32.90865845 1.60903992 33.78606689 1.62094116 34.69006348 C1.74865812 40.091073 2.50152576 44.80528929 4 50 C3.01 49.67 2.02 49.34 1 49 C-0.19791173 46.60417654 -0.1206744 45.13222462 -0.11352539 42.45849609 C-0.11344986 41.51767181 -0.11337433 40.57684753 -0.11329651 39.60751343 C-0.10555458 38.08089584 -0.10555458 38.08089584 -0.09765625 36.5234375 C-0.0962413 35.48305328 -0.09482635 34.44266907 -0.09336853 33.37075806 C-0.08775866 30.03880979 -0.07520447 26.70692805 -0.0625 23.375 C-0.05748627 21.11979264 -0.05292314 18.86458422 -0.04882812 16.609375 C-0.03778603 11.07289386 -0.02103827 5.53645168 0 0 Z " fill="#83DDE7" transform="translate(315,144)"/>
<path d="M0 0 C0.66 0 1.32 0 2 0 C2.33 0.99 2.66 1.98 3 3 C2.67 3.33 2.34 3.66 2 4 C1.79772852 5.4616766 1.6532366 6.93147011 1.53515625 8.40234375 C1.45716797 9.29244141 1.37917969 10.18253906 1.29882812 11.09960938 C1.14162572 12.9873374 0.98796349 14.87536368 0.83789062 16.76367188 C0.75861328 17.65505859 0.67933594 18.54644531 0.59765625 19.46484375 C0.53070557 20.285896 0.46375488 21.10694824 0.39477539 21.95288086 C0 24 0 24 -2 26 C-2.05849554 22.79174438 -2.09376162 19.58362767 -2.125 16.375 C-2.15013672 15.01955078 -2.15013672 15.01955078 -2.17578125 13.63671875 C-2.21201643 8.67249848 -1.96444146 4.65588093 0 0 Z " fill="#7DD6E0" transform="translate(189,308)"/>
<path d="M0 0 C0.6875 1.8125 0.6875 1.8125 1 4 C0.02351983 5.02297922 -0.98131338 6.01904252 -2 7 C-2.268125 7.99 -2.53625 8.98 -2.8125 10 C-4 13 -4 13 -7 14.9375 C-7.99 15.288125 -8.98 15.63875 -10 16 C-10.66 15.67 -11.32 15.34 -12 15 C-10.7260411 12.96166576 -9.38938077 10.96147874 -8 9 C-7.34 9 -6.68 9 -6 9 C-5.7525 8.443125 -5.505 7.88625 -5.25 7.3125 C-3.78393985 4.60028873 -1.97010529 2.36412635 0 0 Z " fill="#515963" transform="translate(112,112)"/>
<path d="M0 0 C0.625 1.75 0.625 1.75 1 4 C0.67 4.5878125 0.34 5.175625 0 5.78125 C-1.30362195 8.67366121 -0.99738363 10.62197755 -0.625 13.75 C-0.51414063 14.73484375 -0.40328125 15.7196875 -0.2890625 16.734375 C-0.19367188 17.48203125 -0.09828125 18.2296875 0 19 C-3.20028974 16.07799633 -3.94300087 14.02598427 -4.1875 9.625 C-4.00971592 6.18784116 -3.59762007 4.0177268 -2 1 C-1.34 0.67 -0.68 0.34 0 0 Z " fill="#7ED8E3" transform="translate(172,212)"/>
<path d="M0 0 C-0.99 1.32 -1.98 2.64 -3 4 C-3.33 3.67 -3.66 3.34 -4 3 C-4.66 4.32 -5.32 5.64 -6 7 C-8.97 6.505 -8.97 6.505 -12 6 C-12 5.34 -12 4.68 -12 4 C-10.390625 2.67578125 -10.390625 2.67578125 -8.25 1.3125 C-7.55390625 0.85488281 -6.8578125 0.39726563 -6.140625 -0.07421875 C-3.60909275 -1.16906025 -2.53899138 -0.9435441 0 0 Z " fill="#3F4B56" transform="translate(133,100)"/>
<path d="M0 0 C0.66 0 1.32 0 2 0 C2 10.89 2 21.78 2 33 C1.67 33 1.34 33 1 33 C1 23.43 1 13.86 1 4 C-0.32 3.67 -1.64 3.34 -3 3 C-2.01 2.67 -1.02 2.34 0 2 C0 1.34 0 0.68 0 0 Z " fill="#0D3240" transform="translate(300,157)"/>
<path d="M0 0 C0.33 0.66 0.66 1.32 1 2 C0.01 3.485 0.01 3.485 -1 5 C-0.67 5.66 -0.34 6.32 0 7 C-1.32 7 -2.64 7 -4 7 C-4.33 7.99 -4.66 8.98 -5 10 C-5.99 10 -6.98 10 -8 10 C-8.66 10.66 -9.32 11.32 -10 12 C-10.99 11.67 -11.98 11.34 -13 11 C-8.71 7.37 -4.42 3.74 0 0 Z " fill="#78D3DE" transform="translate(284,151)"/>
<path d="M0 0 C1.32 0.33 2.64 0.66 4 1 C2.37982158 2.33918806 0.75370657 3.6711969 -0.875 5 C-2.23238281 6.11375 -2.23238281 6.11375 -3.6171875 7.25 C-6 9 -6 9 -8 9 C-8.33 7.35 -8.66 5.7 -9 4 C-7.68 3.34 -6.36 2.68 -5 2 C-5 2.66 -5 3.32 -5 4 C-1.87802522 2.6910428 -1.87802522 2.6910428 0 0 Z " fill="#75D9E5" transform="translate(284,168)"/>
<path d="M0 0 C0.928125 0.2784375 0.928125 0.2784375 1.875 0.5625 C4.04160178 1.23686176 4.04160178 1.23686176 6 0 C6.66 0.66 7.32 1.32 8 2 C5.36 4.31 2.72 6.62 0 9 C-0.66 7.68 -1.32 6.36 -2 5 C-1.34 4.01 -0.68 3.02 0 2 C0 1.34 0 0.68 0 0 Z " fill="#183544" transform="translate(291,137)"/>
<path d="M0 0 C3.68006822 3.38168431 5.9785845 6.42521756 8 11 C4 11 4 11 1 10 C0.855625 9.05125 0.71125 8.1025 0.5625 7.125 C0.17064601 4.1065506 0.17064601 4.1065506 -1 2 C-0.67 1.34 -0.34 0.68 0 0 Z " fill="#1A3545" transform="translate(295,290)"/>
<path d="M0 0 C1.08642103 3.2592631 0.92167347 3.8663102 0 7 C-0.165 7.845625 -0.33 8.69125 -0.5 9.5625 C-1 12 -1 12 -2 15 C-3.32 15 -4.64 15 -6 15 C-4.40109514 9.80355921 -2.25861997 4.93387858 0 0 Z " fill="#193A4A" transform="translate(192,200)"/>
<path d="M0 0 C2.79330042 1.39665021 3.52539945 3.62334094 4.98046875 6.27734375 C6.09359109 8.15813666 7.3349211 9.58468294 9 11 C7.68 11 6.36 11 5 11 C4.34 10.34 3.68 9.68 3 9 C2.01 9.33 1.02 9.66 0 10 C0 6.7 0 3.4 0 0 Z " fill="#7CD6E1" transform="translate(202,333)"/>
<path d="M0 0 C3.6690037 6.30836605 2.20371429 14.07864282 1 21 C0.67 21 0.34 21 0 21 C-1.20194795 14.08879929 -1.97636787 6.82317479 0 0 Z " fill="#434957" transform="translate(90,153)"/>
<path d="M0 0 C0.99 0.33 1.98 0.66 3 1 C2.52433594 1.96486328 2.52433594 1.96486328 2.0390625 2.94921875 C0.68561702 6.92305679 0.54279839 10.64201079 0.375 14.8125 C0.33632812 15.60076172 0.29765625 16.38902344 0.2578125 17.20117188 C0.16411156 19.1337538 0.08099221 21.06684376 0 23 C-0.33 23 -0.66 23 -1 23 C-1.02894547 19.54168414 -1.04678 16.08339928 -1.0625 12.625 C-1.07087891 11.64015625 -1.07925781 10.6553125 -1.08789062 9.640625 C-1.09111328 8.69960938 -1.09433594 7.75859375 -1.09765625 6.7890625 C-1.10289307 5.91975098 -1.10812988 5.05043945 -1.11352539 4.15478516 C-1 2 -1 2 0 0 Z " fill="#6DC1CA" transform="translate(202,309)"/>
<path d="M0 0 C2.31 0 4.62 0 7 0 C7 0.99 7 1.98 7 3 C7.66 3 8.32 3 9 3 C9.76173392 7.3164922 10.16063604 10.74433453 9 15 C8.67 15 8.34 15 8 15 C8.00902344 14.32453125 8.01804688 13.6490625 8.02734375 12.953125 C8.03217693 7.68808819 8.03217693 7.68808819 5.375 3.4453125 C3.23991035 2.21363994 3.23991035 2.21363994 0 1 C0 0.67 0 0.34 0 0 Z " fill="#0E2B3D" transform="translate(212,283)"/>
<path d="M0 0 C2.31 0.33 4.62 0.66 7 1 C7 1.66 7 2.32 7 3 C7.99 3.33 8.98 3.66 10 4 C11.38576923 5.62332967 12.72641268 7.28724465 14 9 C10.23896029 9 9.32044189 7.95225128 6.4375 5.625 C5.25994141 4.68527344 5.25994141 4.68527344 4.05859375 3.7265625 C2 2 2 2 0 0 Z " fill="#79D1DB" transform="translate(267,266)"/>
<path d="M0 0 C0.99 0.33 1.98 0.66 3 1 C3 1.99 3 2.98 3 4 C4.65 4.33 6.3 4.66 8 5 C8 5.66 8 6.32 8 7 C8.66 7 9.32 7 10 7 C9.67 8.32 9.34 9.64 9 11 C7.48869662 9.93249206 5.99121297 8.84539718 4.5 7.75 C3.6646875 7.14671875 2.829375 6.5434375 1.96875 5.921875 C0.99421875 4.97054687 0.99421875 4.97054687 0 4 C0 2.68 0 1.36 0 0 Z " fill="#173846" transform="translate(189,224)"/>
<path d="M0 0 C2.25 0.25 2.25 0.25 4 1 C3.67 2.32 3.34 3.64 3 5 C2.4225 4.7525 1.845 4.505 1.25 4.25 C0.5075 4.1675 -0.235 4.085 -1 4 C-2.37562854 5.28965176 -3.70766393 6.62689293 -5 8 C-7.25 8.75 -7.25 8.75 -9 9 C-7.33333333 7.33333333 -5.66666667 5.66666667 -4 4 C-2.9790625 2.824375 -2.9790625 2.824375 -1.9375 1.625 C-1.298125 1.08875 -0.65875 0.5525 0 0 Z " fill="#79D1DE" transform="translate(294,142)"/>
<path d="M0 0 C0.99 0.66 1.98 1.32 3 2 C3 2.66 3 3.32 3 4 C1.824375 3.79375 0.64875 3.5875 -0.5625 3.375 C-4.90045367 2.81052474 -7.90471417 3.54958627 -12 5 C-8.17183351 0.98953987 -5.63916886 -0.46993074 0 0 Z " fill="#7DD0DB" transform="translate(311,134)"/>
<path d="M0 0 C0.33 0.66 0.66 1.32 1 2 C1.66 2.33 2.32 2.66 3 3 C2.67 3.33 2.34 3.66 2 4 C2.99 4.33 3.98 4.66 5 5 C5 5.66 5 6.32 5 7 C5.66 7 6.32 7 7 7 C6.67 7.66 6.34 8.32 6 9 C4.16399255 7.85845641 2.33125195 6.71165684 0.5 5.5625 C-0.5209375 4.92441406 -1.541875 4.28632813 -2.59375 3.62890625 C-3.3878125 3.09136719 -4.181875 2.55382812 -5 2 C-5 1.67 -5 1.34 -5 1 C-3.35 0.67 -1.7 0.34 0 0 Z " fill="#79CFDB" transform="translate(203,251)"/>
<path d="M0 0 C3.84814487 -0.58305225 5.76308635 0.2997117 8.8125 2.5 C9.88364055 3.32219744 10.9491359 4.15204049 12 5 C10.02 5.99 10.02 5.99 8 7 C7.4225 6.360625 6.845 5.72125 6.25 5.0625 C4.01937599 3.01776132 2.92563609 2.41794801 0 2 C0 1.34 0 0.68 0 0 Z " fill="#7AD8E1" transform="translate(189,134)"/>
<path d="M0 0 C0.99 0.33 1.98 0.66 3 1 C1.5682479 6.01113235 -0.98445693 7.94469549 -5 11 C-5.33 10.01 -5.66 9.02 -6 8 C-5.01 7.67 -4.02 7.34 -3 7 C-1.28432339 3.49705129 -1.28432339 3.49705129 0 0 Z " fill="#7ED9E5" transform="translate(322,348)"/>
<path d="M0 0 C1.5625 1.6875 1.5625 1.6875 3 4 C2.6875 6.75 2.6875 6.75 2 9 C0.68 7.68 -0.64 6.36 -2 5 C-1.34 3.35 -0.68 1.7 0 0 Z " fill="#71D6DF" transform="translate(309,221)"/>
<path d="M0 0 C0.33 0 0.66 0 1 0 C0.67 2.31 0.34 4.62 0 7 C-1.65 7.33 -3.3 7.66 -5 8 C-1.125 1.125 -1.125 1.125 0 0 Z " fill="#78D2DC" transform="translate(196,297)"/>
<path d="M0 0 C0.2475 0.5775 0.495 1.155 0.75 1.75 C2.16683317 4.3002997 3.87627537 6.01785701 6 8 C3.13822943 9.43088528 1.06624227 8.59991697 -2 8 C-1.34 5.36 -0.68 2.72 0 0 Z " fill="#7AD3E1" transform="translate(183,220)"/>
<path d="M0 0 C0.33 0 0.66 0 1 0 C1.66 3.63 2.32 7.26 3 11 C1.68 10.01 0.36 9.02 -1 8 C-1.31900332 4.87376745 -1.41441874 2.82883747 0 0 Z " fill="#143E4B" transform="translate(185,216)"/>
<path d="M0 0 C2.92996359 0.62784934 5.51755783 1.28797092 8 3 C8.75 5.625 8.75 5.625 9 8 C7.87411986 7.04270084 6.7493285 6.08412105 5.625 5.125 C4.99851563 4.59132812 4.37203125 4.05765625 3.7265625 3.5078125 C2.44163349 2.38567993 1.20628025 1.20628025 0 0 Z " fill="#7ED3DF" transform="translate(197,156)"/>
<path d="M0 0 C2.97 0 5.94 0 9 0 C6.14521674 1.90318884 4.58058692 2.4619099 1.3125 3.125 C0.50425781 3.29257812 -0.30398438 3.46015625 -1.13671875 3.6328125 C-1.75160156 3.75398438 -2.36648438 3.87515625 -3 4 C-2.34 3.67 -1.68 3.34 -1 3 C-0.67 2.01 -0.34 1.02 0 0 Z " fill="#60666E" transform="translate(353,403)"/>
<path d="M0 0 C-0.66 2.64 -1.32 5.28 -2 8 C-2.99 7.34 -3.98 6.68 -5 6 C-4.625 3.5625 -4.625 3.5625 -4 1 C-2 0 -2 0 0 0 Z " fill="#1A394A" transform="translate(191,304)"/>
<path d="M0 0 C3.91402949 1.26941497 5.79072873 2.51167694 8 6 C7.01 6.495 7.01 6.495 6 7 C5.34 6.34 4.68 5.68 4 5 C4 4.67 4 4.34 4 4 C1.03 3.505 1.03 3.505 -2 3 C-1.34 2.67 -0.68 2.34 0 2 C0 1.34 0 0.68 0 0 Z " fill="#1E3546" transform="translate(191,130)"/>
<path d="M0 0 C4.455 2.97 4.455 2.97 9 6 C7.68 6.33 6.36 6.66 5 7 C4.34 6.34 3.68 5.68 3 5 C2.46375 4.505 1.9275 4.01 1.375 3.5 C0 2 0 2 0 0 Z " fill="#6B727B" transform="translate(375,102)"/>
<path d="M0 0 C0.33 0 0.66 0 1 0 C1 1.65 1 3.3 1 5 C1.66 5.33 2.32 5.66 3 6 C2.34 6.66 1.68 7.32 1 8 C-1.125 7.625 -1.125 7.625 -3 7 C-2.01 4.69 -1.02 2.38 0 0 Z " fill="#183A48" transform="translate(196,191)"/>
<path d="M0 0 C0.66 0.33 1.32 0.66 2 1 C0.515 4.465 0.515 4.465 -1 8 C-1.66 8 -2.32 8 -3 8 C-2.25 2.25 -2.25 2.25 0 0 Z " fill="#173648" transform="translate(180,186)"/>
<path d="M0 0 C0.33 0.99 0.66 1.98 1 3 C-0.32 4.32 -1.64 5.64 -3 7 C-3 6.34 -3 5.68 -3 5 C-4.65 5 -6.3 5 -8 5 C-7.4225 4.731875 -6.845 4.46375 -6.25 4.1875 C-3.9674132 2.98280141 -2.0262058 1.59201885 0 0 Z " fill="#173A4A" transform="translate(282,173)"/>
<path d="M0 0 C0 0.66 0 1.32 0 2 C0.66 2 1.32 2 2 2 C2 2.66 2 3.32 2 4 C-1.68754757 3.50168276 -3.60490662 2.89932357 -6 0 C-3 -1 -3 -1 0 0 Z " fill="#78D0D9" transform="translate(222,173)"/>
<path d="M0 0 C0.33 0.66 0.66 1.32 1 2 C0.67 2.66 0.34 3.32 0 4 C0.66 4.33 1.32 4.66 2 5 C0.02 5.99 0.02 5.99 -2 7 C-2.99 6.01 -3.98 5.02 -5 4 C-3.35 2.68 -1.7 1.36 0 0 Z " fill="#1B3548" transform="translate(296,161)"/>
<path d="M0 0 C0.66 0 1.32 0 2 0 C2 0.99 2 1.98 2 3 C2.99 3 3.98 3 5 3 C5.33 5.31 5.66 7.62 6 10 C3.25722422 6.80009492 1.3697164 3.99500618 0 0 Z " fill="#6F767F" transform="translate(97,364)"/>
<path d="M0 0 C1.32 0.33 2.64 0.66 4 1 C4 1.99 4 2.98 4 4 C4.99 3.67 5.98 3.34 7 3 C6.67 3.99 6.34 4.98 6 6 C3.37812506 4.95125002 2.20628639 4.35068687 0.75 1.875 C0.5025 1.25625 0.255 0.6375 0 0 Z " fill="#70C5CF" transform="translate(208,165)"/>
<path d="M0 0 C0.66 0 1.32 0 2 0 C2 3.3 2 6.6 2 10 C1.67 10 1.34 10 1 10 C1 8.02 1 6.04 1 4 C-0.32 3.67 -1.64 3.34 -3 3 C-2.01 2.67 -1.02 2.34 0 2 C0 1.34 0 0.68 0 0 Z " fill="#163F50" transform="translate(300,157)"/>
<path d="M0 0 C5.445 1.485 5.445 1.485 11 3 C7 5 7 5 4 5 C3.67 4.34 3.34 3.68 3 3 C2.01 2.67 1.02 2.34 0 2 C0 1.34 0 0.68 0 0 Z " fill="#7AC7D4" transform="translate(215,246)"/>
<path d="M0 0 C1.32 0 2.64 0 4 0 C6.25 2.5 6.25 2.5 8 5 C7.67 5.66 7.34 6.32 7 7 C6.34 6.67 5.68 6.34 5 6 C5 5.34 5 4.68 5 4 C4.360625 3.71125 3.72125 3.4225 3.0625 3.125 C1 2 1 2 0 0 Z " fill="#7CCEDA" transform="translate(172,231)"/>
<path d="M0 0 C1.32 0.33 2.64 0.66 4 1 C1.36 2.98 -1.28 4.96 -4 7 C-4.33 6.34 -4.66 5.68 -5 5 C-2.75 2.4375 -2.75 2.4375 0 0 Z " fill="#7DD0DA" transform="translate(284,168)"/>
<path d="M0 0 C1.98 0.66 3.96 1.32 6 2 C5.67 2.99 5.34 3.98 5 5 C3.68 4.67 2.36 4.34 1 4 C0.67 2.68 0.34 1.36 0 0 Z " fill="#193B4C" transform="translate(265,266)"/>
<path d="M0 0 C0 0.99 0 1.98 0 3 C-4.625 5.125 -4.625 5.125 -8 4 C-2.25 0 -2.25 0 0 0 Z " fill="#183C4C" transform="translate(298,251)"/>
<path d="M0 0 C0.33 0.66 0.66 1.32 1 2 C-0.65 3.65 -2.3 5.3 -4 7 C-4.99 6.67 -5.98 6.34 -7 6 C-4.69 4.02 -2.38 2.04 0 0 Z " fill="#1C4150" transform="translate(290,166)"/>
</svg>
